<?xml version="1.0" standalone="no"?><!DOCTYPE svg PUBLIC "-//W3C//DTD SVG 1.1//EN" "http://www.w3.org/Graphics/SVG/1.1/DTD/svg11.dtd"><svg t="1540136736258" class="icon" style="" viewBox="0 0 1024 1024" version="1.1" xmlns="http://www.w3.org/2000/svg" p-id="10012" xmlns:xlink="http://www.w3.org/1999/xlink" width="64" height="64"><defs><style type="text/css"></style></defs><path d="M584.8 509.5c-20.2 0-36.8 16.3-36.8 36.7 0 21.2 18 38.1 39.5 36.6 18-1.3 32.8-15.9 33.9-33.9 1.5-21.4-15.5-39.4-36.6-39.4z m-145.4 0c-20.2 0-36.8 16.3-36.8 36.7 0 20.6 17.1 37.2 37.8 36.7 18.7-0.4 34.3-15.3 35.6-33.8 1.7-21.5-15.4-39.6-36.6-39.6zM860.8 176H308.6c-28.3 0-51.2 22.9-51.2 51.2v29.1c0 12.3 9.9 22.2 22.2 22.2s22.2-9.9 22.2-22.2v-13.7c0-12.3 9.9-22.2 22.2-22.2h521.3c12.3 0 22.2 9.9 22.2 22.2v317.2c0 12.3-9.9 22.2-22.2 22.2h-13.7c-12.3 0-22.2 9.9-22.2 22.2s9.9 22.2 22.2 22.2h29c28.3 0 51.3-22.9 51.3-51.2V227.1c0.2-28.3-22.7-51.1-51.1-51.1zM715.7 321.1H163.2c-28.3 0-51.2 22.9-51.2 51.2v348.1c0 28.2 22.9 51.2 51.2 51.2h65v34.7c0 37.1 45 55.7 71.3 29.5l64.5-64.3h351.5c28.3 0 51.3-22.9 51.3-51.2v-348h0.1c0-28.3-23-51.2-51.2-51.2z m3.8 383c0 11.1-9 20.1-20.1 20.1H352.6c-5.3 0-10.5 2.1-14.2 5.9l-28.5 28.5c-12.7 12.7-34.4 3.8-34.4-14.2 0-11.1-9-20.1-20.1-20.1h-76.1c-11.2 0-20.1-9-20.1-20.1v-316c0-11.1 9-20.1 20.1-20.1h520c11.2 0 20.1 9 20.1 20.1v315.9h0.1zM294.1 509.5c-20.2 0-36.8 16.3-36.8 36.7 0 20.4 16.6 36.7 36.8 36.7s36.8-16.5 36.8-36.7c-0.1-20.2-16.6-36.7-36.8-36.7z" p-id="10013"></path></svg>