<?xml version="1.0" standalone="no"?><!DOCTYPE svg PUBLIC "-//W3C//DTD SVG 1.1//EN" "http://www.w3.org/Graphics/SVG/1.1/DTD/svg11.dtd"><svg t="1540137099594" class="icon" style="" viewBox="0 0 1024 1024" version="1.1" xmlns="http://www.w3.org/2000/svg" p-id="10164" xmlns:xlink="http://www.w3.org/1999/xlink" width="64" height="64"><defs><style type="text/css"></style></defs><path d="M891.848 80.692H129.855c-36.671 0-66.505 29.981-66.505 66.831v553.075c0 36.853 29.834 66.831 66.505 66.831h314.496v121.6H341.518c-13.346 0-24.168 10.873-24.168 24.285 0 13.417 10.822 24.293 24.168 24.293h338.666c13.349 0 24.168-10.876 24.168-24.293 0-13.411-10.819-24.285-24.168-24.285h-102.83v-121.6h314.493c36.671 0 66.502-29.978 66.502-66.831V147.524c0.001-36.85-29.831-66.832-66.501-66.832z m-761.993 48.581h761.993c10.016 0 18.164 8.186 18.164 18.251v443.7H111.688v-443.7c0-10.066 8.15-18.251 18.167-18.251zM529.016 889.03h-36.33v-121.6h36.33v121.6z m362.832-170.178H129.855c-10.016 0-18.167-8.188-18.167-18.254v-60.797h798.324v60.797c0 10.066-8.148 18.254-18.164 18.254z" p-id="10165" fill="#515151"></path></svg>