<?xml version="1.0" standalone="no"?><!DOCTYPE svg PUBLIC "-//W3C//DTD SVG 1.1//EN" "http://www.w3.org/Graphics/SVG/1.1/DTD/svg11.dtd"><svg t="1540120437632" class="icon" style="" viewBox="0 0 1024 1024" version="1.1" xmlns="http://www.w3.org/2000/svg" p-id="2814" xmlns:xlink="http://www.w3.org/1999/xlink" width="64" height="64"><defs><style type="text/css"></style></defs><path d="M763.328 428.256l0-111.68c0-138.816-112.544-251.328-251.328-251.328-138.816 0-251.328 112.544-251.328 251.328l0 111.68c-46.272 0-83.776 37.504-83.776 83.776l0 195.456c0 138.816 112.512 251.328 251.328 251.328l167.52 0c138.816 0 251.328-112.512 251.328-251.328l0-195.456C847.104 465.728 809.568 428.256 763.328 428.256zM325.952 315.52c0-107.968 73.408-187.648 181.376-187.648s192 79.68 192 187.648l0 111.68-52.384 0-269.952 0-51.04 0L325.952 315.52zM780 592.672l0 109.504c0 105.632-85.952 191.52-191.584 191.52l-154.944 0c-105.6 0-191.584-85.92-191.584-191.52l0-184.096c0-15.104 12.288-27.36 27.36-27.36 18.272 0 36.512 0 54.752 0l373.888 0c18.208 0 36.448 0 54.752 0 15.072 0 27.36 12.288 27.36 27.36L780 592.672zM507.328 594.752c30.816 0 55.84 24.992 55.84 55.872 0 16.992-9.184 49.344-18.592 74.88-7.648 20.608-15.392 36.736-37.248 36.736-20.096 0-29.632-16.288-37.216-37.024-9.344-25.472-18.624-57.632-18.624-74.592C451.488 619.744 476.512 594.752 507.328 594.752z" p-id="2815" fill="#515151"></path></svg>