<?xml version="1.0" standalone="no"?><!DOCTYPE svg PUBLIC "-//W3C//DTD SVG 1.1//EN" "http://www.w3.org/Graphics/SVG/1.1/DTD/svg11.dtd"><svg t="1540136841792" class="icon" style="" viewBox="0 0 1024 1024" version="1.1" xmlns="http://www.w3.org/2000/svg" p-id="5961" xmlns:xlink="http://www.w3.org/1999/xlink" width="64" height="64"><defs><style type="text/css"></style></defs><path d="M751.104 464.896c0-28.16-22.528-50.688-50.688-50.688s-50.688 22.528-50.688 50.688 22.528 50.688 50.688 50.688 50.688-22.528 50.688-50.688z" p-id="5962"></path><path d="M796.672 124.416h-568.32c-56.832 0-102.912 50.176-102.912 111.616v457.216c0 61.44 46.08 111.616 102.912 111.616h335.36c5.12 0 11.264 1.536 16.384 6.656 5.12 5.632 68.608 76.8 68.608 76.8 6.144 6.656 14.848 10.752 24.064 10.752 8.192 0 16.384-3.072 22.016-8.704 13.312-12.8 14.336-32.768 2.56-46.592l-84.992-94.72c-6.144-6.144-14.848-11.776-24.064-11.776H221.696c-17.408 0-31.232-16.896-31.232-37.888V231.424c0-22.016 14.848-40.96 31.232-40.96h580.096c16.896 0 31.232 19.456 31.232 40.96v469.504c0 20.992-13.824 37.888-31.232 37.888h-62.976c-17.408 1.024-31.232 15.36-31.232 32.768s13.824 32.256 31.232 32.768h57.856c56.32 0 102.4-50.176 102.4-111.616V236.032c0-61.44-46.08-111.616-102.4-111.616z" p-id="5963"></path><path d="M271.36 464.896c0 27.648 23.04 50.688 50.688 50.688 28.16 0 50.688-22.528 50.688-50.688s-22.528-50.688-50.688-50.688-50.688 22.528-50.688 50.688zM460.8 464.896c0 28.16 22.528 50.688 50.688 50.688s50.688-22.528 50.688-50.688-22.528-50.688-50.688-50.688-50.688 22.528-50.688 50.688z" p-id="5964"></path></svg>