<?xml version="1.0" standalone="no"?><!DOCTYPE svg PUBLIC "-//W3C//DTD SVG 1.1//EN" "http://www.w3.org/Graphics/SVG/1.1/DTD/svg11.dtd"><svg t="1540137136537" class="icon" style="" viewBox="0 0 1024 1024" version="1.1" xmlns="http://www.w3.org/2000/svg" p-id="10959" xmlns:xlink="http://www.w3.org/1999/xlink" width="64" height="64"><defs><style type="text/css"></style></defs><path d="M724.6 650.3c44.4-61.8 72.9-134 72.9-212.4 0-201.3-161.7-363-363-363s-363 161.7-363 363 161.7 363 363 363c78.4 0 150.6-27.8 212.4-67.3l217.9 217.9c22.2 22.2 56.2 22.2 78.4 0 22.2-22.2 22.2-56.2 0-78.4L724.6 650.3z m-290.8 95.1c-168 0-307.5-139.5-307.5-307.5s139.5-307.5 307.5-307.5 307.5 139.5 307.5 307.5-139.5 307.5-307.5 307.5" p-id="10960" fill="#515151"></path></svg>