<?xml version="1.0" standalone="no"?><!DOCTYPE svg PUBLIC "-//W3C//DTD SVG 1.1//EN" "http://www.w3.org/Graphics/SVG/1.1/DTD/svg11.dtd"><svg t="1540137252255" class="icon" style="" viewBox="0 0 1024 1024" version="1.1" xmlns="http://www.w3.org/2000/svg" p-id="13285" xmlns:xlink="http://www.w3.org/1999/xlink" width="64" height="64"><defs><style type="text/css"></style></defs><path d="M895.59 639.863a128 128 0 0 0 127.83-127.829 128.034 128.034 0 0 0-127.83-127.897h-22.152a376.251 376.251 0 0 0-15.394-37.342l15.633-15.668c24.098-24.064 37.342-56.183 37.342-90.35s-13.244-66.287-37.342-90.351a126.805 126.805 0 0 0-90.42-37.376 126.566 126.566 0 0 0-90.316 37.376l-15.667 15.599a389.732 389.732 0 0 0-37.342-15.395v-22.186A128 128 0 0 0 512.068 0.614a127.966 127.966 0 0 0-127.83 127.83v22.152a386.73 386.73 0 0 0-37.375 15.394l-15.599-15.599a126.737 126.737 0 0 0-90.42-37.341 126.6 126.6 0 0 0-90.35 37.376c-24.098 24.03-37.41 56.149-37.41 90.35s13.312 66.287 37.376 90.351l15.599 15.668c-5.769 12.083-10.889 24.576-15.394 37.342h-22.153A128.034 128.034 0 0 0 0.649 512.034a128.034 128.034 0 0 0 127.863 127.83h22.153a388.811 388.811 0 0 0 15.394 37.375l-15.6 15.634a126.874 126.874 0 0 0-37.375 90.316c0 34.27 13.312 66.356 37.376 90.385a126.737 126.737 0 0 0 90.35 37.308 126.84 126.84 0 0 0 90.42-37.308l15.599-15.599c12.083 5.769 24.576 10.855 37.376 15.36v22.153a128 128 0 0 0 127.83 127.863 128.034 128.034 0 0 0 127.863-127.863v-22.153c12.765-4.505 25.19-9.591 37.341-15.394l15.668 15.633a126.703 126.703 0 0 0 90.316 37.342c34.27 0 66.322-13.243 90.42-37.342s37.342-56.149 37.342-90.385a126.635 126.635 0 0 0-37.342-90.316l-15.633-15.668a376.251 376.251 0 0 0 15.394-37.342h22.186z m-67.14 98.134c12.05 12.049 18.637 28.057 18.637 45.192 0 17.204-6.588 33.212-18.637 45.261-24.03 23.928-66.355 23.928-90.385 0l-49.152-49.323-21.128 11.913a314.47 314.47 0 0 1-68.506 28.228l-23.313 6.588v69.666c0 35.294-28.672 63.932-63.898 63.932s-63.931-28.638-63.931-63.932v-69.666l-23.28-6.588a315.733 315.733 0 0 1-68.505-28.228l-21.094-11.844-49.22 49.22c-24.03 23.962-66.39 23.962-90.386 0-12.049-12.083-18.637-28.092-18.637-45.227s6.588-33.211 18.637-45.192l49.186-49.152-11.81-21.129a316.723 316.723 0 0 1-28.262-68.54l-6.588-23.244h-69.734a64 64 0 0 1-63.932-63.898c0-35.26 28.706-63.966 63.932-63.966h69.7l6.588-23.21a317.44 317.44 0 0 1 28.262-68.54l11.81-21.129-49.22-49.186a63.42 63.42 0 0 1-18.603-45.192c0-17.17 6.588-33.212 18.637-45.193 23.996-24.064 66.355-24.064 90.385 0l49.22 49.22 21.095-11.844a321.024 321.024 0 0 1 68.505-28.262l23.28-6.588v-69.7c0-35.226 28.706-63.932 63.931-63.932s63.898 28.706 63.898 63.932v69.7l23.313 6.588c24.2 6.86 47.206 16.384 68.505 28.262l21.129 11.844 49.152-49.22c24.03-24.064 66.355-24.064 90.385 0 12.05 12.015 18.637 27.99 18.637 45.193 0 17.1-6.588 33.211-18.637 45.192l-49.152 49.186 11.776 21.129c11.947 21.333 21.47 44.34 28.262 68.54l6.554 23.21h69.734c35.226 0 63.898 28.706 63.898 63.966 0 35.226-28.672 63.932-63.898 63.932h-69.734l-6.554 23.21a316.245 316.245 0 0 1-28.262 68.54l-11.776 21.129 49.186 49.152zM512 320.239c-105.78 0-191.795 86.05-191.795 191.795S406.255 703.727 512 703.727a191.966 191.966 0 0 0 191.795-191.693A192 192 0 0 0 512 320.24m0 319.624a128 128 0 0 1-127.863-127.829A128.034 128.034 0 0 1 512 384.137a128.034 128.034 0 0 1 127.863 127.897A128 128 0 0 1 512 639.864" fill="#515151" p-id="13286"></path></svg>