<?xml version="1.0" standalone="no"?><!DOCTYPE svg PUBLIC "-//W3C//DTD SVG 1.1//EN" "http://www.w3.org/Graphics/SVG/1.1/DTD/svg11.dtd"><svg t="1540120399476" class="icon" style="" viewBox="0 0 1024 1024" version="1.1" xmlns="http://www.w3.org/2000/svg" p-id="1946" xmlns:xlink="http://www.w3.org/1999/xlink" width="64" height="64"><defs><style type="text/css"></style></defs><path d="M914.855 916.95c0 22.309-18.104 39.908-40.432 40.413-33.74 0.766-41.584-40.919-41.584-40.919-19.153-156.568-150.02-278.37-310.635-283.48-3.454 0.144-6.87 0.505-10.368 0.505-3.492 0-6.868-0.386-10.323-0.505-160.572 5.153-291.4 126.912-310.574 283.48 0 0-4.408 40.92-41.38 40.92-22.31 0-40.414-18.105-40.414-40.414 0 0 0.728-14.162 2.587-18.83 20.304-141.482 113.332-259.338 240.36-314.034-74.615-51.058-123.657-136.813-123.657-234.035 0-156.536 126.87-283.424 283.382-283.424 156.533 0 283.423 126.907 283.423 283.424 0 97.203-49.02 182.919-123.599 233.997 128.224 55.178 221.935 174.734 241.05 318.012 1.031 3.555 1.76 7.23 1.76 11.132l0.404 3.758zM714.218 350.147c0-111.815-90.605-202.435-202.44-202.435-111.795 0-202.44 90.62-202.44 202.435 0 111.8 90.643 202.459 202.44 202.459 111.835-0.02 202.44-90.683 202.44-202.459z m0 0" p-id="1947" fill="#515151"></path></svg>