<?xml version="1.0" standalone="no"?><!DOCTYPE svg PUBLIC "-//W3C//DTD SVG 1.1//EN" "http://www.w3.org/Graphics/SVG/1.1/DTD/svg11.dtd"><svg t="1540123777177" class="icon" style="" viewBox="0 0 1024 1024" version="1.1" xmlns="http://www.w3.org/2000/svg" p-id="3724" xmlns:xlink="http://www.w3.org/1999/xlink" width="64" height="64"><defs><style type="text/css"></style></defs><path d="M978.03377778 479.57062451c-19.97287636-39.94575273-64.35704498-115.39883986-139.81013334-181.975094-8.87683421-8.87683421-22.19208431-6.65762505-31.06891851 2.21920794-8.87683421 8.87683421-6.65762505 22.19208431 2.21920794 31.06891852 68.79546209 59.91862909 108.74121481 128.71409118 126.49488323 162.00221764-37.72654357 75.45308835-166.44063475 281.83947461-414.99198289 281.83947583-250.77055609 0-377.26543933-206.38638747-414.9919829-279.62026667 37.72654357-73.23387919 166.44063475-272.96264162 414.9919829-272.96264162 75.45308835 0 144.24855044 17.7536672 206.38638747 53.26100283 11.09604215 6.65762505 24.41129347 2.21920795 31.06891852-8.87683299s2.21920795-24.41129347-8.87683421-31.06891852c-68.79546209-37.72654357-146.46775838-57.69941993-228.57847178-57.69941993-284.05868377 0-423.8688171 233.01688889-459.37615273 304.03155892l-2.21920794 2.21920916c-2.21920795 6.65762505-2.21920795 13.31525131 0 19.97287636l2.21920794 2.21920795c35.50733562 73.23387919 175.31746896 312.90839313 459.37615273 312.90839313C800.49710088 819.10951906 940.30723421 579.43500512 978.03377778 506.20112593l2.21920794-2.21920795c2.21920795-6.65762505 2.21920795-13.31525131 0-19.97287636l-2.21920794-4.43841711z" fill="#515151" p-id="3725"></path><path d="M343.34015609 497.32429172c0 95.4259635 77.6722963 175.31746896 175.31746896 175.31746895s175.31746896-77.6722963 175.31746896-175.31746895c0-95.4259635-77.6722963-175.31746896-175.31746896-175.31746896s-175.31746896 77.6722963-175.31746896 175.31746896z m306.2507693 0c0 71.01467125-57.69941993 130.93329912-130.93330034 130.93330033s-130.93329912-57.69941993-130.93329912-130.93330033c0-71.01467125 57.69941993-130.93329912 130.93329912-130.93329913s130.93329912 59.91862909 130.93330034 130.93329913z" fill="#515151" p-id="3726"></path></svg>